<svg id="_0449_easter_egg_1" xmlns="http://www.w3.org/2000/svg" viewBox="0 0 500 500" data-imageid="easter-egg-1-56" imageName="Easter Egg 1" class="illustrations_image" style="width: 158px;"><defs><style>.cls-1_easter-egg-1-56{opacity:.03;}.cls-1_easter-egg-1-56,.cls-2_easter-egg-1-56,.cls-3_easter-egg-1-56{fill:#000001;}.cls-2_easter-egg-1-56{opacity:.15;}.cls-4_easter-egg-1-56{fill:#fff;opacity:.19;}.cls-5_easter-egg-1-56{fill:#e6e6e6;opacity:.3;}.cls-6_easter-egg-1-56{fill:#24285b;}.cls-3_easter-egg-1-56{opacity:.08;}.cls-7_easter-egg-1-56{fill:#ffd200;}.cls-8_easter-egg-1-56{fill:#68e1fd;}</style></defs><g id="bg_easter-egg-1-56"><path class="cls-5_easter-egg-1-56" d="m120.09,81.68c-44.97,21.61-78.32,76.43-84.9,142.72-5.54,55.87,7.7,117.61,85.65,135.2,151.68,34.23,293.73,43.98,330-48.36,36.26-92.34,25.1-250.51-51.86-260.75-61.2-8.14-191.06-11.03-278.88,31.19Z"/><ellipse class="cls-1_easter-egg-1-56" cx="245.88" cy="452.84" rx="193.86" ry="23"/></g><g id="easter_eggs_easter-egg-1-56"><path class="cls-7_easter-egg-1-56" d="m335.39,161.03c0,25.02-11,47.52-28.54,63.16-2.58,2.28-5.29,4.42-8.11,6.4-.26.18-.53.36-.79.54-14.2,9.7-31.49,15.4-50.14,15.4s-35.94-5.7-50.14-15.4c-.26-.18-.53-.36-.79-.54-2.82-1.99-5.53-4.12-8.11-6.4-10.62-9.49-18.87-21.49-23.69-35.05-3.14-8.8-4.84-18.26-4.84-28.11,0-47.22,39.21-85.51,87.58-85.51s87.19,37.91,87.56,84.81c.02.23.02.48.02.71Z"/><path class="cls-7_easter-egg-1-56" d="m335.39,161.03c0,25.02-11,47.52-28.54,63.16-2.58,2.28-5.29,4.42-8.11,6.4-.26.18-.53.36-.79.54-14.2,9.7-31.49,15.4-50.14,15.4s-35.94-5.7-50.14-15.4c-.26-.18-.53-.36-.79-.54-2.82-1.99-5.53-4.12-8.11-6.4-10.62-9.49-18.87-21.49-23.69-35.05-3.14-8.8-4.84-18.26-4.84-28.11,0-47.22,39.21-85.51,87.58-85.51s87.19,37.91,87.56,84.81c.02.23.02.48.02.71Z"/><ellipse class="cls-7_easter-egg-1-56" cx="247.81" cy="308.68" rx="103.75" ry="106.18"/><path class="cls-7_easter-egg-1-56" d="m197.79,230.87c-2.07-1.04-132.16-33.17-131.12-15.55,1.04,17.62,103.14,68.93,103.14,68.93l27.99-53.38Z"/><path class="cls-7_easter-egg-1-56" d="m297.82,230.87c2.07-1.04,132.16-33.17,131.12-15.55-1.04,17.62-103.14,68.93-103.14,68.93l-27.99-53.38Z"/><ellipse class="cls-7_easter-egg-1-56" cx="247.81" cy="308.68" rx="103.75" ry="106.18"/><path class="cls-7_easter-egg-1-56" d="m197.79,230.87c-2.07-1.04-132.16-33.17-131.12-15.55,1.04,17.62,103.14,68.93,103.14,68.93l27.99-53.38Z"/><path class="cls-7_easter-egg-1-56" d="m297.82,230.87c2.07-1.04,132.16-33.17,131.12-15.55-1.04,17.62-103.14,68.93-103.14,68.93l-27.99-53.38Z"/><circle class="cls-6_easter-egg-1-56" cx="274.7" cy="146.4" r="7.3"/><circle class="cls-6_easter-egg-1-56" cx="220.02" cy="145.69" r="7.3"/><path class="cls-2_easter-egg-1-56" d="m268.71,177.49c-3.06,4.81-9.59,12.15-20.99,12.54-9.71.35-17.11-7.81-20.72-12.83,6.21-.87,15.18-3.26,19.53-3,4.19.24,15.15,2.51,22.18,3.29Z"/><path class="cls-3_easter-egg-1-56" d="m247.82,157.02c-16.1,0-28.41,16.21-27.24,19.52,1.17,3.3,19.24-2.72,26.04-2.33s31.53,6.14,28.18,2.14c0,0-10.3-19.32-26.98-19.32Z"/><path class="cls-3_easter-egg-1-56" d="m335.37,160.33c-6.12-1.87-11.87-5.11-16.53-9.42-6.45-5.98-11.69-14.04-20.08-16.67-8.13-2.54-16.14.69-23.94,4.86-2.13,1.15-4.24,2.35-6.34,3.53-1.64.92-3.28,1.84-4.91,2.68-2.28,1.18-4.84,2.27-7.34,1.69-1.86-.44-3.38-1.74-4.79-3.02-5.5-4.99-10.62-10.41-15.32-16.17-4.58,3.45-8.95,7.22-13.02,11.28-3.32,3.27-6.44,6.72-9.34,10.33-2.84,3.5-5.48,7.16-7.93,10.94-3.14-5.7-6.27-11.39-9.39-17.09-.87-1.58-1.89-3.28-3.6-3.86-2.79-.94-5.45,1.64-7.19,4.01-10.16,13.76-16.17,29.03-20.49,45.45-.03.1-.05.2-.08.3-3.14-8.8-4.84-18.26-4.84-28.11,0-47.22,39.21-85.51,87.58-85.51s87.19,37.91,87.56,84.81Z"/><path class="cls-8_easter-egg-1-56 targetColor" d="m346.1,127.47l-19.53,20.88-27.8-31.89-3.57-4.09-28.06,39.01-15.92-17.67-16.47-18.3-29.36,28.57-10.34,10.06-21.89-39.26-31.1,26.34c.05-.3.15-.61.21-.91.24-.94.47-1.88.71-2.81.48-1.9,1.01-3.82,1.54-5.72.12-.48.26-.98.41-1.46,3.74-12.21,8.66-25.91,14.96-39.39,5.66-12.12,12.44-24.04,20.5-34.52,12.57-16.35,28.24-29.17,47.62-33.66,4.59-1.07,9.38-1.68,14.4-1.75,24.61-.34,44.87,12.45,61.08,30.35,9.74,10.76,18.03,23.39,24.93,36.13,5.15,9.5,9.52,19.07,13.14,27.97.58,1.44,1.15,2.87,1.7,4.33.4.99.77,2,1.14,2.99.06.17.11.31.16.46.31.83.62,1.65.9,2.48.22.61.45,1.24.65,1.86Z" style="fill: rgb(212, 110, 36);"/><path class="cls-4_easter-egg-1-56" d="m252.37,124.84c.11,3.08-.29,6.08-1.16,8.87l-16.47-18.3-29.36,28.57c-4.16-4.54-6.76-10.53-7.01-17.15-.55-14.91,11.09-27.45,26-28,14.91-.55,27.45,11.09,28,26Z"/><path class="cls-4_easter-egg-1-56" d="m188.67,71.88c.41,11.12-8.28,20.48-19.41,20.89-3.35.12-6.54-.58-9.38-1.94,5.66-12.12,12.44-24.04,20.5-34.52,4.83,3.51,8.06,9.14,8.29,15.57Z"/><path class="cls-4_easter-egg-1-56" d="m303.48,51.26c-4.67,16.41-19.49,28.69-37.45,29.35-22.35.83-41.14-16.62-41.96-38.97-.25-6.79,1.19-13.26,3.93-18.99,4.59-1.07,9.38-1.68,14.4-1.75,24.61-.34,44.87,12.45,61.08,30.35Z"/><path class="cls-4_easter-egg-1-56" d="m346.1,127.47l-19.53,20.88-27.8-31.89c3.73-14.28,15.11-25.58,29.64-29.08,5.15,9.5,9.52,19.07,13.14,27.97.58,1.44,1.15,2.87,1.7,4.33.4.99.77,2,1.14,2.99.06.17.11.31.16.46.31.83.62,1.65.9,2.48.22.61.45,1.24.65,1.86Z"/><path class="cls-8_easter-egg-1-56 targetColor" d="m372.78,344.71c0,7.41-.4,14.39-1.18,20.97-.86,7.26-2.17,14.01-3.91,20.3-4.2,15.26-10.88,27.76-19.54,37.88-14.29,16.67-33.97,26.88-56.86,32.35-14.81,3.53-30.96,5.08-47.87,5.08h-.19c-28.22-.01-54.35-4.35-75.59-15.06-15.45-7.78-28.33-18.95-37.56-34.31-10.24-16.94-16.05-38.98-16.05-67.21,0-8.13.48-16.49,1.43-24.96.24-2.26.52-4.53.83-6.8.55-4.03,1.21-8.08,1.95-12.13.6-3.32,1.27-6.64,1.99-9.96t0-.01c1.22-5.55,2.62-11.09,4.17-16.6l15.96-12.53,21.03-16.52,23.58,46.22,17.43-15.75,30.01-27.12,15.39,18.43,20.44,24.44,34.03-43.81,2.69,3.33,31.96,39.52,23.41-23.25c3.38,10.99,6.13,22.13,8.19,33.22.91,4.96,1.68,9.9,2.31,14.8.22,1.79.43,3.57.63,5.36.88,8.2,1.32,16.28,1.32,24.13Z" style="fill: rgb(212, 110, 36);"/><path class="cls-4_easter-egg-1-56" d="m166.82,366.27c0,22.37-15.73,41.08-36.74,45.65-10.24-16.94-16.05-38.98-16.05-67.21,0-8.13.48-16.49,1.43-24.96,1.52-.15,3.05-.22,4.61-.22,4.6,0,9.05.67,13.25,1.91,17.12,5.05,30.16,19.65,32.94,37.63.36,2.35.55,4.75.55,7.2Z"/><path class="cls-4_easter-egg-1-56" d="m250.34,437.97c0,8.63-2.62,16.67-7.12,23.33-28.22-.01-54.35-4.35-75.59-15.06-.54-2.68-.82-5.43-.82-8.26,0-23.06,18.7-41.75,41.77-41.75s41.75,18.7,41.75,41.75Z"/><circle class="cls-4_easter-egg-1-56" cx="197.89" cy="335.55" r="23.27"/><path class="cls-4_easter-egg-1-56" d="m157.86,284.26c0,12.85-10.42,23.27-23.27,23.27-3.19,0-6.22-.64-8.99-1.8h-.01c-2.75-1.16-5.24-2.83-7.34-4.91.6-3.32,1.27-6.64,1.99-9.96t0-.01c1.22-5.55,2.62-11.09,4.17-16.6l15.96-12.53c10.06,2.58,17.49,11.68,17.49,22.55Z"/><circle class="cls-4_easter-egg-1-56" cx="274.42" cy="353.25" r="46.74"/><path class="cls-4_easter-egg-1-56" d="m247.81,266.97c-5.48,8.98-15.36,14.97-26.64,14.97-7.06,0-13.55-2.34-18.76-6.28l30.01-27.12,15.39,18.43Z"/><path class="cls-4_easter-egg-1-56" d="m368.52,300.43c-5.33,2.11-11.13,3.27-17.21,3.27-25.81,0-46.74-20.93-46.74-46.74,0-2.04.13-4.05.39-6.03l31.96,39.52,23.41-23.25c3.38,10.99,6.13,22.13,8.19,33.22Z"/><path class="cls-4_easter-egg-1-56" d="m348.15,423.87c-14.29,16.67-33.97,26.88-56.86,32.35-3.5-5.21-5.54-11.49-5.54-18.25,0-18.1,14.68-32.78,32.79-32.78,13.05,0,24.34,7.64,29.61,18.68Z"/><path class="cls-4_easter-egg-1-56" d="m372.78,344.71c0,7.41-.4,14.39-1.18,20.97-.86,7.26-2.17,14.01-3.91,20.3-8.89-.27-16.88-4.06-22.63-10.05-5.66-5.88-9.14-13.89-9.14-22.7,0-18.1,14.68-32.78,32.78-32.78.92,0,1.85.04,2.75.12.88,8.2,1.32,16.28,1.32,24.13Z"/><path class="cls-3_easter-egg-1-56" d="m371.61,365.69c-.86,7.26-2.17,14.01-3.91,20.3-4.2,15.26-10.88,27.76-19.54,37.88-14.29,16.67-33.97,26.88-56.86,32.35-14.81,3.53-30.96,5.08-47.87,5.08h-.19c-28.22-.01-54.35-4.35-75.59-15.06-15.45-7.78-28.33-18.95-37.56-34.31-10.24-16.94-16.05-38.98-16.05-67.21,0-8.13.48-16.49,1.43-24.96.24-2.26.52-4.53.83-6.8.55-4.03,1.21-8.08,1.95-12.13.6-3.32,1.27-6.64,1.99-9.96,1.65,4.91,3.3,9.81,5.21,14.53.04.12.09.22.13.34h.01c2.2,5.45,4.79,10.69,7.73,15.7,8.45,14.5,19.75,27.17,32.94,37.63,23.28,18.52,52.47,30.22,82.36,33.15,8.72.88,17.5.98,26.21.31,10.61-.83,21.11-2.66,31.47-5.12,9.36-2.2,18.61-4.91,27.78-7.83,3.68-1.18,7.34-2.37,10.99-3.63,8.98-3.08,17.86-6.45,26.54-10.26Z"/></g></svg>